<svg width="32" height="32" viewBox="0 0 32 32" fill="none" xmlns="http://www.w3.org/2000/svg">
<path d="M25.7969 31.5859H20.75V28.3203H25.7969C26.4661 28.3203 27.108 28.0545 27.5812 27.5812C28.0545 27.108 28.3203 26.4661 28.3203 25.7969V20.75H31.5859V25.7969C31.5842 27.3317 30.9737 28.8031 29.8884 29.8884C28.8031 30.9737 27.3317 31.5842 25.7969 31.5859ZM31.5859 11.25H28.3203V6.20312C28.3203 5.53387 28.0545 4.89202 27.5812 4.41878C27.108 3.94555 26.4661 3.67969 25.7969 3.67969H20.75V0.414062H25.7969C27.3317 0.41583 28.8031 1.02632 29.8884 2.11159C30.9737 3.19687 31.5842 4.66831 31.5859 6.20312V11.25ZM11.25 31.5859H6.20312C4.66831 31.5842 3.19687 30.9737 2.11159 29.8884C1.02632 28.8031 0.41583 27.3317 0.414062 25.7969V20.75H3.67969V25.7969C3.67969 26.4661 3.94555 27.108 4.41878 27.5812C4.89202 28.0545 5.53387 28.3203 6.20312 28.3203H11.25V31.5859ZM3.67969 11.25H0.414062V6.20312C0.41583 4.66831 1.02632 3.19687 2.11159 2.11159C3.19687 1.02632 4.66831 0.41583 6.20312 0.414062H11.25V3.67969H6.20312C5.53387 3.67969 4.89202 3.94555 4.41878 4.41878C3.94555 4.89202 3.67969 5.53387 3.67969 6.20312V11.25Z" fill="#FBBC05"/>
<path d="M25.7315 8.03859L25.6203 6.87079L24.5081 7.24152C22.602 7.90378 20.5665 8.10701 18.5671 7.83469C16.4661 7.50864 14.3157 7.79837 12.3759 8.66884C11.3476 9.10671 10.4451 9.79486 9.75065 10.6706C9.0562 11.5464 8.59183 12.5819 8.39982 13.683C8.15085 15.1054 8.2754 16.568 8.76128 17.9279C9.07414 17.2217 9.43972 16.5401 9.85494 15.8888C10.7968 14.5031 12.1018 13.4032 13.6271 12.7098C15.0966 12.0389 16.7027 11.7215 18.3169 11.783C16.7802 12.0179 15.3093 12.5703 13.9979 13.4049C13.3653 13.8024 12.786 14.2789 12.274 14.823C11.7843 15.3668 11.3525 15.9601 10.9857 16.5932C10.2966 17.9167 9.8063 19.3346 9.53055 20.801C9.23333 22.2722 9.072 23.7676 9.0486 25.2683H10.9023C10.9894 23.9224 11.1721 22.5844 11.4491 21.2644C12.735 21.9588 14.1771 22.313 15.6384 22.2932C17.0012 22.2923 18.3501 22.0181 19.6052 21.4869C26.6584 18.4747 25.7315 8.45567 25.7315 8.03859Z" fill="#128750"/>
</svg>
