<svg width="25" height="24" viewBox="0 0 25 24" fill="none" xmlns="http://www.w3.org/2000/svg">
<path d="M14.1339 8.11612C13.8995 7.8817 13.5815 7.75 13.25 7.75C12.9185 7.75 12.6005 7.8817 12.3661 8.11612C12.1317 8.35054 12 8.66848 12 9C12 9.33152 12.1317 9.64946 12.3661 9.88388C12.6005 10.1183 12.9185 10.25 13.25 10.25C13.5815 10.25 13.8995 10.1183 14.1339 9.88388C14.3683 9.64946 14.5 9.33152 14.5 9C14.5 8.66848 14.3683 8.35054 14.1339 8.11612Z" fill="#128750"/>
<path fill-rule="evenodd" clip-rule="evenodd" d="M20.5 18V3C20.5 2.80109 20.421 2.61032 20.2803 2.46967C20.1397 2.32902 19.9489 2.25 19.75 2.25H7C6.20435 2.25 5.44129 2.56607 4.87868 3.12868C4.31607 3.69129 4 4.45435 4 5.25V21C4 21.1989 4.07902 21.3897 4.21967 21.5303C4.36032 21.671 4.55109 21.75 4.75 21.75H18.25C18.4489 21.75 18.6397 21.671 18.7803 21.5303C18.921 21.3897 19 21.1989 19 21C19 20.8011 18.921 20.6103 18.7803 20.4697C18.6397 20.329 18.4489 20.25 18.25 20.25H5.5C5.5 19.8522 5.65804 19.4706 5.93934 19.1893C6.22064 18.908 6.60218 18.75 7 18.75H19.75C19.9489 18.75 20.1397 18.671 20.2803 18.5303C20.421 18.3897 20.5 18.1989 20.5 18ZM10.068 14.682C9.22411 13.8381 8.75 12.6935 8.75 11.5C11.235 11.5 13.25 13.5 13.25 16C12.0565 16 10.9119 15.5259 10.068 14.682ZM13.25 16C13.25 13.5 15.25 11.5 17.75 11.5C17.75 12.6935 17.2759 13.8381 16.432 14.682C15.5881 15.5259 14.4435 16 13.25 16ZM10.4161 11.0089C10.1817 10.7745 10.05 10.4565 10.05 10.125C10.05 9.625 10.345 9.2 10.765 9C10.345 8.8 10.05 8.37 10.05 7.875C10.05 7.54348 10.1817 7.22554 10.4161 6.99112C10.6505 6.7567 10.9685 6.625 11.3 6.625C11.565 6.625 11.81 6.705 12 6.845V6.75C12 6.41848 12.1317 6.10054 12.3661 5.86612C12.6005 5.6317 12.9185 5.5 13.25 5.5C13.5815 5.5 13.8995 5.6317 14.1339 5.86612C14.3683 6.10054 14.5 6.41848 14.5 6.75V6.845C14.69 6.705 14.935 6.625 15.2 6.625C15.5315 6.625 15.8495 6.7567 16.0839 6.99112C16.3183 7.22554 16.45 7.54348 16.45 7.875C16.45 8.37 16.155 8.8 15.735 9C16.155 9.2 16.45 9.625 16.45 10.125C16.45 10.4565 16.3183 10.7745 16.0839 11.0089C15.8495 11.2433 15.5315 11.375 15.2 11.375C14.935 11.375 14.69 11.29 14.5 11.155V11.25C14.5 11.5815 14.3683 11.8995 14.1339 12.1339C13.8995 12.3683 13.5815 12.5 13.25 12.5C12.9185 12.5 12.6005 12.3683 12.3661 12.1339C12.1317 11.8995 12 11.5815 12 11.25V11.155C11.81 11.29 11.565 11.375 11.3 11.375C10.9685 11.375 10.6505 11.2433 10.4161 11.0089Z" fill="#128750"/>
</svg>
