<svg width="25" height="24" viewBox="0 0 25 24" fill="none" xmlns="http://www.w3.org/2000/svg">
<path d="M12.5 22C6.977 22 2.5 17.523 2.5 12C2.5 6.477 6.977 2 12.5 2C18.023 2 22.5 6.477 22.5 12C22.5 17.523 18.023 22 12.5 22ZM7.5 12C7.5 13.3261 8.02678 14.5979 8.96447 15.5355C9.90215 16.4732 11.1739 17 12.5 17C13.8261 17 15.0979 16.4732 16.0355 15.5355C16.9732 14.5979 17.5 13.3261 17.5 12H15.5C15.5 12.7956 15.1839 13.5587 14.6213 14.1213C14.0587 14.6839 13.2956 15 12.5 15C11.7044 15 10.9413 14.6839 10.3787 14.1213C9.81607 13.5587 9.5 12.7956 9.5 12H7.5Z" fill="#868686"/>
</svg>
